<svg width="24" height="24" viewBox="0 0 24 24" fill="none" xmlns="http://www.w3.org/2000/svg">
    <path fill-rule="evenodd" clip-rule="evenodd" d="M5.10851 5.25C4.63275 5.25 4.24707 5.58579 4.24707 6C4.24707 6.41421 4.63275 6.75 5.10851 6.75H12C12.4758 6.75 12.8614 6.41421 12.8614 6C12.8614 5.58579 12.4758 5.25 12 5.25H5.10851ZM5.10851 9.25C4.63275 9.25 4.24707 9.58579 4.24707 10C4.24707 10.4142 4.63275 10.75 5.10851 10.75H18.8915C19.3673 10.75 19.7529 10.4142 19.7529 10C19.7529 9.58579 19.3673 9.25 18.8915 9.25H5.10851ZM4.24707 14C4.24707 13.5858 4.63275 13.25 5.10851 13.25H12C12.4758 13.25 12.8614 13.5858 12.8614 14C12.8614 14.4142 12.4758 14.75 12 14.75H5.10851C4.63275 14.75 4.24707 14.4142 4.24707 14ZM5.10851 17.25C4.63275 17.25 4.24707 17.5858 4.24707 18C4.24707 18.4142 4.63275 18.75 5.10851 18.75H18.8915C19.3673 18.75 19.7529 18.4142 19.7529 18C19.7529 17.5858 19.3673 17.25 18.8915 17.25H5.10851Z" fill="#010A27"/>
</svg>
