<svg width="393" height="591" viewBox="0 0 393 591" fill="none" xmlns="http://www.w3.org/2000/svg">
    <mask id="path-1-inside-1_51_1130" fill="white">
        <path d="M148.754 24.3718C141.83 24.4523 136.378 19.0804 136.371 12.1863C136.371 5.43117 141.655 0.0739343 148.403 0.000747976C155.37 -0.0724383 160.764 5.23357 160.771 12.1936C160.786 18.9194 155.48 24.2986 148.754 24.3718Z"/>
        <path d="M198.374 20.7417C187.213 20.5587 178.577 28.9532 178.446 40.1287H178.453C178.321 50.9749 186.774 59.6841 197.694 59.9549C208.518 60.2257 217.571 51.4141 217.71 40.4654C217.842 29.6924 209.242 20.9173 198.374 20.7417Z"/>
        <path d="M278.777 91.3446C278.718 105.901 267.243 117.253 252.679 117.172C238.451 117.092 226.961 105.543 226.888 91.2641C226.814 76.861 238.466 65.239 252.949 65.2756C267.528 65.3049 278.835 76.722 278.784 91.3519L278.777 91.3446Z"/>
        <path d="M195.74 176.753C178.175 176.38 165.002 162.804 165.47 145.539C165.909 129.189 179.815 115.95 196.282 116.191C213.07 116.433 226.559 130.426 226.163 147.186C225.761 163.923 212.2 177.104 195.74 176.753Z"/>
        <path d="M283.271 144.566C266.628 144.559 253.081 158.091 253.037 174.762C252.986 191.676 266.277 205.289 283.139 205.596C299.65 205.903 313.709 191.983 313.767 175.267C313.833 158.142 300.352 144.566 283.271 144.566Z"/>
        <path d="M138.662 175.348C138.779 158.369 125.451 144.719 108.611 144.573C91.7491 144.427 77.9242 157.937 77.8364 174.653C77.7486 191.5 91.3759 205.486 107.931 205.545C124.807 205.603 138.544 192.108 138.662 175.348Z"/>
        <path d="M165.382 444.754C165.192 427.972 178.621 414.316 195.637 413.994C212.207 413.679 226.134 427.489 226.273 444.366C226.412 460.994 212.909 474.724 196.208 474.936C179.405 475.148 165.572 461.609 165.382 444.754Z"/>
        <path d="M337.429 311.174C320.545 311.255 307.144 324.597 307.144 341.349C307.144 358.416 320.428 371.868 337.407 371.985C354.247 372.095 367.882 358.489 367.882 341.554C367.882 324.531 354.415 311.094 337.429 311.174Z"/>
        <path d="M54.4681 311.174C71.6596 311.379 84.8331 324.999 84.5696 342.301C84.3208 358.863 70.4813 372.161 53.6704 372C36.8961 371.839 23.4957 357.933 23.7665 340.969C24.0373 324.224 37.6865 310.977 54.4681 311.174Z"/>
        <path d="M23.9056 249.376C23.8397 266.34 37.2694 279.799 54.2487 279.792C70.9937 279.777 84.46 266.318 84.4819 249.566C84.5039 232.799 71.0229 219.15 54.4463 219.15C37.3719 219.157 23.9715 232.418 23.9056 249.376Z"/>
        <path d="M253.155 416.043C253.096 399.232 266.452 385.766 283.197 385.758C300.177 385.751 313.614 398.939 313.672 415.669C313.738 432.839 300.104 446.62 283.205 446.474C266.504 446.327 253.213 432.868 253.155 416.043Z"/>
        <path d="M307.261 250.642C307.656 266.926 321.51 280.129 337.765 279.719V279.726C355.213 279.287 368.181 265.864 367.779 248.666C367.376 231.679 353.551 218.784 336.14 219.179C319.761 219.545 306.851 233.611 307.261 250.642Z"/>
        <path d="M108.421 446.481C125.071 446.415 138.479 432.861 138.501 416.072C138.523 399.144 125.327 385.824 108.487 385.773C91.5813 385.721 78.0857 398.939 77.9979 415.64C77.9101 432.751 91.5154 446.547 108.421 446.481Z"/>
        <path d="M29.1679 453.17C14.699 453.039 3.42826 441.402 3.61123 426.787C3.78687 412.691 15.4308 401.171 29.3948 401.281C44.2223 401.391 55.6833 412.918 55.5369 427.57C55.3905 442.039 43.7832 453.302 29.1679 453.17Z"/>
        <path d="M407.936 312.653C422.098 312.675 433.756 301.001 433.756 286.796C433.764 272.21 422.369 260.749 407.841 260.727C393.284 260.698 381.94 272.049 381.853 286.715C381.765 301.104 393.365 312.631 407.936 312.653Z"/>
        <path d="M295.639 494.404C295.647 479.825 284.222 468.357 269.709 468.393H269.702C255.233 468.422 243.721 480.015 243.757 494.506C243.801 508.858 255.504 520.399 269.987 520.363C284.142 520.326 295.632 508.704 295.639 494.404Z"/>
        <path d="M-6.70852 178.195C-6.70852 163.704 4.51095 152.257 18.8262 152.155C33.3171 152.045 45.1586 163.609 45.1879 177.887C45.2245 192.268 33.5952 204.095 19.3165 204.205C4.94275 204.315 -6.70852 192.671 -6.70852 178.195Z"/>
        <path d="M-16.4129 278.533C-30.6916 278.592 -41.9915 290.104 -41.9184 304.522C-41.8452 319.056 -30.3769 330.342 -15.7689 330.247C-1.65125 330.159 10 318.368 9.92683 304.251C9.85364 289.95 -1.90741 278.475 -16.4129 278.533Z"/>
        <path d="M147.781 96.5407C147.824 110.929 136.517 122.39 122.209 122.463C107.609 122.536 96.0085 111.178 95.9939 96.7968C95.9793 82.3499 107.543 70.7425 121.946 70.7352C136.129 70.7352 147.737 82.3279 147.781 96.5407Z"/>
        <path d="M137.951 525.654C153.006 525.764 164.533 514.691 164.643 500.009V500.002C164.752 485.658 153.379 474.123 139.02 474.014C124.639 473.904 112.936 485.299 112.849 499.482C112.768 513.732 124.105 525.551 137.951 525.654Z"/>
        <path d="M387.869 163.704C387.92 178.202 376.7 189.531 362.231 189.59C347.682 189.648 336.192 178.224 336.155 163.66C336.118 149.506 347.77 137.913 362.092 137.855C376.415 137.796 387.81 149.228 387.861 163.704H387.869Z"/>
        <path d="M373.121 387.135C358.477 386.827 347.008 397.871 346.672 412.618C346.342 426.853 357.716 438.526 372.141 438.768C386.419 439.002 398.122 427.731 398.473 413.409C398.824 399.188 387.488 387.442 373.121 387.135Z"/>
        <path d="M63.631 500.639C63.6456 511.632 54.9291 520.399 43.9878 520.407C33.244 520.407 24.1031 511.214 24.2421 500.537C24.3812 489.829 33.2148 481.054 43.9073 480.996C54.9145 480.937 63.6164 489.603 63.631 500.639Z"/>
        <path d="M-46.3462 194.903C-57.2217 194.976 -65.8138 203.576 -65.8357 214.407C-65.8577 225.444 -57.2363 234.16 -46.2437 234.212C-35.3683 234.263 -26.4761 225.378 -26.5127 214.488C-26.5493 203.525 -35.3609 194.83 -46.3462 194.903Z"/>
        <path d="M363.643 503.273C363.658 514.39 355.132 522.88 343.964 522.873C333.234 522.873 324.372 514.134 324.284 503.464C324.189 492.669 333.073 483.689 343.971 483.557C354.832 483.425 363.636 492.244 363.643 503.273Z"/>
        <path d="M347.542 109.883C336.704 109.868 328.082 101.217 328.09 90.3639C328.09 79.5323 336.733 70.8012 347.528 70.7353C358.462 70.6621 367.281 79.5396 367.193 90.5102C367.098 101.327 358.411 109.897 347.55 109.883H347.542Z"/>
        <path d="M439.318 238.412C450.194 238.281 458.83 229.608 458.822 218.828C458.815 207.908 450.237 199.185 439.486 199.148C428.472 199.111 419.704 207.542 419.572 218.301C419.441 229.469 428.348 238.552 439.318 238.412Z"/>
        <path d="M457.315 376.654C457.285 387.552 448.693 396.056 437.759 396.005C426.877 395.961 418.306 387.317 418.358 376.449C418.409 365.53 427.008 356.857 437.789 356.843C448.869 356.835 457.351 365.435 457.315 376.647V376.654Z"/>
        <path d="M28.0551 87.9414C28.099 98.5608 36.7277 107.182 47.369 107.241V107.233C58.5372 107.299 67.1879 98.7657 67.1659 87.7292C67.1366 76.8098 58.6031 68.2689 47.6983 68.247C36.6252 68.225 28.0112 76.861 28.0551 87.9414Z"/>
        <path d="M-47.6124 391.716C-58.5537 391.672 -67.2043 383.029 -67.1238 372.234C-67.0433 361.285 -58.4732 352.81 -47.5026 352.817C-36.5466 352.825 -27.9984 361.373 -27.9911 372.321C-27.9911 383.146 -36.693 391.76 -47.605 391.716H-47.6124Z"/>
        <path d="M193.127 570.225C204.295 570.422 212.916 562.043 213.085 550.838C213.246 540.189 204.793 531.407 194.115 531.121C183.159 530.836 174.303 539.457 174.142 550.574C173.989 561.245 182.486 570.035 193.127 570.225Z"/>
        <path d="M-76.023 252.83C-75.9937 259.783 -81.2558 265.045 -88.2451 265.045C-95.088 265.045 -100.284 259.944 -100.357 253.16C-100.438 246.119 -95.3442 240.806 -88.3988 240.681C-81.6364 240.557 -76.0523 246.046 -76.023 252.838V252.83Z"/>
        <path d="M462.929 162.95C462.863 156.122 457.33 150.684 450.553 150.794L450.545 150.801C443.673 150.911 438.411 156.356 438.499 163.257C438.587 169.903 444.068 175.289 450.663 175.216C457.593 175.135 462.994 169.734 462.929 162.95Z"/>
        <path d="M55.1779 552.558C55.0389 558.991 60.5645 564.494 67.2903 564.633H67.2829C74.221 564.772 79.6368 559.569 79.7539 552.645C79.871 545.978 74.6528 540.548 67.9343 540.343C60.9523 540.138 55.3316 545.517 55.1779 552.558Z"/>
        <path d="M330.512 36.4547C330.315 43.2098 324.921 48.4646 318.29 48.3621C311.469 48.2524 305.812 42.4926 306.104 35.9497C306.397 29.363 312.062 23.8374 318.429 23.9252C325.126 24.0131 330.71 29.8021 330.512 36.4547Z"/>
        <path d="M400.91 484.721C394.016 484.589 388.534 489.888 388.468 496.738H388.476C388.41 503.735 393.679 509.172 400.5 509.15C407.314 509.129 412.708 503.954 412.803 497.338C412.905 490.393 407.68 484.845 400.91 484.721Z"/>
        <path d="M480.661 320.286C487.482 320.315 492.576 325.511 492.576 332.42C492.576 339.314 487.043 344.803 480.258 344.642C473.708 344.489 468.351 338.853 468.446 332.208C468.534 325.49 473.899 320.257 480.668 320.286H480.661Z"/>
        <path d="M-68.4628 433.967C-68.3604 440.722 -63.0032 446.02 -56.3139 445.984L-56.3066 445.976C-49.5442 445.947 -44.1577 440.634 -44.1357 433.981C-44.1211 427.277 -49.4783 421.81 -56.1163 421.766C-63.0837 421.722 -68.5726 427.146 -68.4628 433.967Z"/>
        <path d="M248.829 590.219C242.067 590.234 236.893 584.964 236.929 578.1C236.966 571.279 242.147 566.112 248.976 566.09C255.789 566.068 261.044 571.264 261.088 578.056C261.132 585.082 255.972 590.197 248.829 590.212V590.219Z"/>
        <path d="M-13.3902 111.127C-6.65704 111.017 -1.32176 105.63 -1.34372 98.9705C-1.36568 92.2007 -6.68631 86.7776 -13.3243 86.763C-19.9989 86.7411 -25.5611 92.1642 -25.5903 98.7143C-25.6196 105.579 -20.0648 111.237 -13.3902 111.127Z"/>
    </mask>
    <path d="M148.754 24.3718C141.83 24.4523 136.378 19.0804 136.371 12.1863C136.371 5.43117 141.655 0.0739343 148.403 0.000747976C155.37 -0.0724383 160.764 5.23357 160.771 12.1936C160.786 18.9194 155.48 24.2986 148.754 24.3718Z" stroke="#F07448" stroke-width="1.46373" mask="url(#path-1-inside-1_51_1130)"/>
    <path d="M198.374 20.7417C187.213 20.5587 178.577 28.9532 178.446 40.1287H178.453C178.321 50.9749 186.774 59.6841 197.694 59.9549C208.518 60.2257 217.571 51.4141 217.71 40.4654C217.842 29.6924 209.242 20.9173 198.374 20.7417Z" stroke="#F07448" stroke-width="1.46373" mask="url(#path-1-inside-1_51_1130)"/>
    <path d="M278.777 91.3446C278.718 105.901 267.243 117.253 252.679 117.172C238.451 117.092 226.961 105.543 226.888 91.2641C226.814 76.861 238.466 65.239 252.949 65.2756C267.528 65.3049 278.835 76.722 278.784 91.3519L278.777 91.3446Z" stroke="#F07448" stroke-width="1.46373" mask="url(#path-1-inside-1_51_1130)"/>
    <path d="M195.74 176.753C178.175 176.38 165.002 162.804 165.47 145.539C165.909 129.189 179.815 115.95 196.282 116.191C213.07 116.433 226.559 130.426 226.163 147.186C225.761 163.923 212.2 177.104 195.74 176.753Z" stroke="#F07448" stroke-width="1.46373" mask="url(#path-1-inside-1_51_1130)"/>
    <path d="M283.271 144.566C266.628 144.559 253.081 158.091 253.037 174.762C252.986 191.676 266.277 205.289 283.139 205.596C299.65 205.903 313.709 191.983 313.767 175.267C313.833 158.142 300.352 144.566 283.271 144.566Z" stroke="#F07448" stroke-width="1.46373" mask="url(#path-1-inside-1_51_1130)"/>
    <path d="M138.662 175.348C138.779 158.369 125.451 144.719 108.611 144.573C91.7491 144.427 77.9242 157.937 77.8364 174.653C77.7486 191.5 91.3759 205.486 107.931 205.545C124.807 205.603 138.544 192.108 138.662 175.348Z" stroke="#F07448" stroke-width="1.46373" mask="url(#path-1-inside-1_51_1130)"/>
    <path d="M165.382 444.754C165.192 427.972 178.621 414.316 195.637 413.994C212.207 413.679 226.134 427.489 226.273 444.366C226.412 460.994 212.909 474.724 196.208 474.936C179.405 475.148 165.572 461.609 165.382 444.754Z" stroke="#F07448" stroke-width="1.46373" mask="url(#path-1-inside-1_51_1130)"/>
    <path d="M337.429 311.174C320.545 311.255 307.144 324.597 307.144 341.349C307.144 358.416 320.428 371.868 337.407 371.985C354.247 372.095 367.882 358.489 367.882 341.554C367.882 324.531 354.415 311.094 337.429 311.174Z" stroke="#F07448" stroke-width="1.46373" mask="url(#path-1-inside-1_51_1130)"/>
    <path d="M54.4681 311.174C71.6596 311.379 84.8331 324.999 84.5696 342.301C84.3208 358.863 70.4813 372.161 53.6704 372C36.8961 371.839 23.4957 357.933 23.7665 340.969C24.0373 324.224 37.6865 310.977 54.4681 311.174Z" stroke="#F07448" stroke-width="1.46373" mask="url(#path-1-inside-1_51_1130)"/>
    <path d="M23.9056 249.376C23.8397 266.34 37.2694 279.799 54.2487 279.792C70.9937 279.777 84.46 266.318 84.4819 249.566C84.5039 232.799 71.0229 219.15 54.4463 219.15C37.3719 219.157 23.9715 232.418 23.9056 249.376Z" stroke="#F07448" stroke-width="1.46373" mask="url(#path-1-inside-1_51_1130)"/>
    <path d="M253.155 416.043C253.096 399.232 266.452 385.766 283.197 385.758C300.177 385.751 313.614 398.939 313.672 415.669C313.738 432.839 300.104 446.62 283.205 446.474C266.504 446.327 253.213 432.868 253.155 416.043Z" stroke="#F07448" stroke-width="1.46373" mask="url(#path-1-inside-1_51_1130)"/>
    <path d="M307.261 250.642C307.656 266.926 321.51 280.129 337.765 279.719V279.726C355.213 279.287 368.181 265.864 367.779 248.666C367.376 231.679 353.551 218.784 336.14 219.179C319.761 219.545 306.851 233.611 307.261 250.642Z" stroke="#F07448" stroke-width="1.46373" mask="url(#path-1-inside-1_51_1130)"/>
    <path d="M108.421 446.481C125.071 446.415 138.479 432.861 138.501 416.072C138.523 399.144 125.327 385.824 108.487 385.773C91.5813 385.721 78.0857 398.939 77.9979 415.64C77.9101 432.751 91.5154 446.547 108.421 446.481Z" stroke="#F07448" stroke-width="1.46373" mask="url(#path-1-inside-1_51_1130)"/>
    <path d="M29.1679 453.17C14.699 453.039 3.42826 441.402 3.61123 426.787C3.78687 412.691 15.4308 401.171 29.3948 401.281C44.2223 401.391 55.6833 412.918 55.5369 427.57C55.3905 442.039 43.7832 453.302 29.1679 453.17Z" stroke="#F07448" stroke-width="1.46373" mask="url(#path-1-inside-1_51_1130)"/>
    <path d="M407.936 312.653C422.098 312.675 433.756 301.001 433.756 286.796C433.764 272.21 422.369 260.749 407.841 260.727C393.284 260.698 381.94 272.049 381.853 286.715C381.765 301.104 393.365 312.631 407.936 312.653Z" stroke="#F07448" stroke-width="1.46373" mask="url(#path-1-inside-1_51_1130)"/>
    <path d="M295.639 494.404C295.647 479.825 284.222 468.357 269.709 468.393H269.702C255.233 468.422 243.721 480.015 243.757 494.506C243.801 508.858 255.504 520.399 269.987 520.363C284.142 520.326 295.632 508.704 295.639 494.404Z" stroke="#F07448" stroke-width="1.46373" mask="url(#path-1-inside-1_51_1130)"/>
    <path d="M-6.70852 178.195C-6.70852 163.704 4.51095 152.257 18.8262 152.155C33.3171 152.045 45.1586 163.609 45.1879 177.887C45.2245 192.268 33.5952 204.095 19.3165 204.205C4.94275 204.315 -6.70852 192.671 -6.70852 178.195Z" stroke="#F07448" stroke-width="1.46373" mask="url(#path-1-inside-1_51_1130)"/>
    <path d="M-16.4129 278.533C-30.6916 278.592 -41.9915 290.104 -41.9184 304.522C-41.8452 319.056 -30.3769 330.342 -15.7689 330.247C-1.65125 330.159 10 318.368 9.92683 304.251C9.85364 289.95 -1.90741 278.475 -16.4129 278.533Z" stroke="#F07448" stroke-width="1.46373" mask="url(#path-1-inside-1_51_1130)"/>
    <path d="M147.781 96.5407C147.824 110.929 136.517 122.39 122.209 122.463C107.609 122.536 96.0085 111.178 95.9939 96.7968C95.9793 82.3499 107.543 70.7425 121.946 70.7352C136.129 70.7352 147.737 82.3279 147.781 96.5407Z" stroke="#F07448" stroke-width="1.46373" mask="url(#path-1-inside-1_51_1130)"/>
    <path d="M137.951 525.654C153.006 525.764 164.533 514.691 164.643 500.009V500.002C164.752 485.658 153.379 474.123 139.02 474.014C124.639 473.904 112.936 485.299 112.849 499.482C112.768 513.732 124.105 525.551 137.951 525.654Z" stroke="#F07448" stroke-width="1.46373" mask="url(#path-1-inside-1_51_1130)"/>
    <path d="M387.869 163.704C387.92 178.202 376.7 189.531 362.231 189.59C347.682 189.648 336.192 178.224 336.155 163.66C336.118 149.506 347.77 137.913 362.092 137.855C376.415 137.796 387.81 149.228 387.861 163.704H387.869Z" stroke="#F07448" stroke-width="1.46373" mask="url(#path-1-inside-1_51_1130)"/>
    <path d="M373.121 387.135C358.477 386.827 347.008 397.871 346.672 412.618C346.342 426.853 357.716 438.526 372.141 438.768C386.419 439.002 398.122 427.731 398.473 413.409C398.824 399.188 387.488 387.442 373.121 387.135Z" stroke="#F07448" stroke-width="1.46373" mask="url(#path-1-inside-1_51_1130)"/>
    <path d="M63.631 500.639C63.6456 511.632 54.9291 520.399 43.9878 520.407C33.244 520.407 24.1031 511.214 24.2421 500.537C24.3812 489.829 33.2148 481.054 43.9073 480.996C54.9145 480.937 63.6164 489.603 63.631 500.639Z" stroke="#F07448" stroke-width="1.46373" mask="url(#path-1-inside-1_51_1130)"/>
    <path d="M-46.3462 194.903C-57.2217 194.976 -65.8138 203.576 -65.8357 214.407C-65.8577 225.444 -57.2363 234.16 -46.2437 234.212C-35.3683 234.263 -26.4761 225.378 -26.5127 214.488C-26.5493 203.525 -35.3609 194.83 -46.3462 194.903Z" stroke="#F07448" stroke-width="1.46373" mask="url(#path-1-inside-1_51_1130)"/>
    <path d="M363.643 503.273C363.658 514.39 355.132 522.88 343.964 522.873C333.234 522.873 324.372 514.134 324.284 503.464C324.189 492.669 333.073 483.689 343.971 483.557C354.832 483.425 363.636 492.244 363.643 503.273Z" stroke="#F07448" stroke-width="1.46373" mask="url(#path-1-inside-1_51_1130)"/>
    <path d="M347.542 109.883C336.704 109.868 328.082 101.217 328.09 90.3639C328.09 79.5323 336.733 70.8012 347.528 70.7353C358.462 70.6621 367.281 79.5396 367.193 90.5102C367.098 101.327 358.411 109.897 347.55 109.883H347.542Z" stroke="#F07448" stroke-width="1.46373" mask="url(#path-1-inside-1_51_1130)"/>
    <path d="M439.318 238.412C450.194 238.281 458.83 229.608 458.822 218.828C458.815 207.908 450.237 199.185 439.486 199.148C428.472 199.111 419.704 207.542 419.572 218.301C419.441 229.469 428.348 238.552 439.318 238.412Z" stroke="#F07448" stroke-width="1.46373" mask="url(#path-1-inside-1_51_1130)"/>
    <path d="M457.315 376.654C457.285 387.552 448.693 396.056 437.759 396.005C426.877 395.961 418.306 387.317 418.358 376.449C418.409 365.53 427.008 356.857 437.789 356.843C448.869 356.835 457.351 365.435 457.315 376.647V376.654Z" stroke="#F07448" stroke-width="1.46373" mask="url(#path-1-inside-1_51_1130)"/>
    <path d="M28.0551 87.9414C28.099 98.5608 36.7277 107.182 47.369 107.241V107.233C58.5372 107.299 67.1879 98.7657 67.1659 87.7292C67.1366 76.8098 58.6031 68.2689 47.6983 68.247C36.6252 68.225 28.0112 76.861 28.0551 87.9414Z" stroke="#F07448" stroke-width="1.46373" mask="url(#path-1-inside-1_51_1130)"/>
    <path d="M-47.6124 391.716C-58.5537 391.672 -67.2043 383.029 -67.1238 372.234C-67.0433 361.285 -58.4732 352.81 -47.5026 352.817C-36.5466 352.825 -27.9984 361.373 -27.9911 372.321C-27.9911 383.146 -36.693 391.76 -47.605 391.716H-47.6124Z" stroke="#F07448" stroke-width="1.46373" mask="url(#path-1-inside-1_51_1130)"/>
    <path d="M193.127 570.225C204.295 570.422 212.916 562.043 213.085 550.838C213.246 540.189 204.793 531.407 194.115 531.121C183.159 530.836 174.303 539.457 174.142 550.574C173.989 561.245 182.486 570.035 193.127 570.225Z" stroke="#F07448" stroke-width="1.46373" mask="url(#path-1-inside-1_51_1130)"/>
    <path d="M-76.023 252.83C-75.9937 259.783 -81.2558 265.045 -88.2451 265.045C-95.088 265.045 -100.284 259.944 -100.357 253.16C-100.438 246.119 -95.3442 240.806 -88.3988 240.681C-81.6364 240.557 -76.0523 246.046 -76.023 252.838V252.83Z" stroke="#F07448" stroke-width="1.46373" mask="url(#path-1-inside-1_51_1130)"/>
    <path d="M462.929 162.95C462.863 156.122 457.33 150.684 450.553 150.794L450.545 150.801C443.673 150.911 438.411 156.356 438.499 163.257C438.587 169.903 444.068 175.289 450.663 175.216C457.593 175.135 462.994 169.734 462.929 162.95Z" stroke="#F07448" stroke-width="1.46373" mask="url(#path-1-inside-1_51_1130)"/>
    <path d="M55.1779 552.558C55.0389 558.991 60.5645 564.494 67.2903 564.633H67.2829C74.221 564.772 79.6368 559.569 79.7539 552.645C79.871 545.978 74.6528 540.548 67.9343 540.343C60.9523 540.138 55.3316 545.517 55.1779 552.558Z" stroke="#F07448" stroke-width="1.46373" mask="url(#path-1-inside-1_51_1130)"/>
    <path d="M330.512 36.4547C330.315 43.2098 324.921 48.4646 318.29 48.3621C311.469 48.2524 305.812 42.4926 306.104 35.9497C306.397 29.363 312.062 23.8374 318.429 23.9252C325.126 24.0131 330.71 29.8021 330.512 36.4547Z" stroke="#F07448" stroke-width="1.46373" mask="url(#path-1-inside-1_51_1130)"/>
    <path d="M400.91 484.721C394.016 484.589 388.534 489.888 388.468 496.738H388.476C388.41 503.735 393.679 509.172 400.5 509.15C407.314 509.129 412.708 503.954 412.803 497.338C412.905 490.393 407.68 484.845 400.91 484.721Z" stroke="#F07448" stroke-width="1.46373" mask="url(#path-1-inside-1_51_1130)"/>
    <path d="M480.661 320.286C487.482 320.315 492.576 325.511 492.576 332.42C492.576 339.314 487.043 344.803 480.258 344.642C473.708 344.489 468.351 338.853 468.446 332.208C468.534 325.49 473.899 320.257 480.668 320.286H480.661Z" stroke="#F07448" stroke-width="1.46373" mask="url(#path-1-inside-1_51_1130)"/>
    <path d="M-68.4628 433.967C-68.3604 440.722 -63.0032 446.02 -56.3139 445.984L-56.3066 445.976C-49.5442 445.947 -44.1577 440.634 -44.1357 433.981C-44.1211 427.277 -49.4783 421.81 -56.1163 421.766C-63.0837 421.722 -68.5726 427.146 -68.4628 433.967Z" stroke="#F07448" stroke-width="1.46373" mask="url(#path-1-inside-1_51_1130)"/>
    <path d="M248.829 590.219C242.067 590.234 236.893 584.964 236.929 578.1C236.966 571.279 242.147 566.112 248.976 566.09C255.789 566.068 261.044 571.264 261.088 578.056C261.132 585.082 255.972 590.197 248.829 590.212V590.219Z" stroke="#F07448" stroke-width="1.46373" mask="url(#path-1-inside-1_51_1130)"/>
    <path d="M-13.3902 111.127C-6.65704 111.017 -1.32176 105.63 -1.34372 98.9705C-1.36568 92.2007 -6.68631 86.7776 -13.3243 86.763C-19.9989 86.7411 -25.5611 92.1642 -25.5903 98.7143C-25.6196 105.579 -20.0648 111.237 -13.3902 111.127Z" stroke="#F07448" stroke-width="1.46373" mask="url(#path-1-inside-1_51_1130)"/>
</svg>
