<svg width="24" height="24" viewBox="0 0 24 24" fill="none" xmlns="http://www.w3.org/2000/svg">
    <path d="M11.3458 2H15.24C16.7616 2 18.0627 2.94779 18.5896 4.28743C17.7088 4.16854 16.6114 4.1686 15.3348 4.16867H12.2652C10.9887 4.1686 9.88877 4.16854 9.00798 4.28743C8.06404 4.41485 7.15921 4.7022 6.4253 5.43906C5.69139 6.17592 5.40519 7.08438 5.27828 8.03211C5.15986 8.91644 5.15993 10.0207 5.16 11.3024V16.312C5.15994 17.3737 5.15989 18.6498 5.22717 19.5592C3.91995 19.0174 3 17.725 3 16.2169V10.3793C2.99999 8.60802 2.99997 7.205 3.14701 6.10697C3.29833 4.97692 3.61717 4.06227 4.33559 3.34096C5.05402 2.61964 5.96501 2.29953 7.09054 2.1476C8.18418 1.99997 9.5816 1.99999 11.3458 2Z" fill="#010A27"/>
    <path d="M7.44314 6.46118C6.59961 7.3081 6.59961 8.6712 6.59961 11.3974V16.2167C6.59961 18.9429 6.59961 20.306 7.44314 21.1529C8.28667 21.9998 9.64432 21.9998 12.3596 21.9998H15.2396C17.9549 21.9998 19.3125 21.9998 20.1561 21.1529C20.9996 20.306 20.9996 18.9429 20.9996 16.2167V11.3974C20.9996 8.67121 20.9996 7.3081 20.1561 6.46118C19.3125 5.61426 17.9549 5.61426 15.2396 5.61426H12.3596C9.64432 5.61426 8.28667 5.61426 7.44314 6.46118Z" fill="#010A27"/>
</svg>
