<svg width="24" height="24" viewBox="0 0 24 24" fill="none" xmlns="http://www.w3.org/2000/svg">
    <path fill-rule="evenodd" clip-rule="evenodd" d="M5.10677 5.25C4.63089 5.25 4.24512 5.58579 4.24512 6C4.24512 6.41421 4.63089 6.75 5.10677 6.75H18.8932C19.3691 6.75 19.7549 6.41421 19.7549 6C19.7549 5.58579 19.3691 5.25 18.8932 5.25H5.10677ZM5.10677 9.25C4.63089 9.25 4.24512 9.58579 4.24512 10C4.24512 10.4142 4.63089 10.75 5.10677 10.75H18.8932C19.3691 10.75 19.7549 10.4142 19.7549 10C19.7549 9.58579 19.3691 9.25 18.8932 9.25H5.10677ZM4.24512 14C4.24512 13.5858 4.63089 13.25 5.10677 13.25H18.8932C19.3691 13.25 19.7549 13.5858 19.7549 14C19.7549 14.4142 19.3691 14.75 18.8932 14.75H5.10677C4.63089 14.75 4.24512 14.4142 4.24512 14ZM5.10677 17.25C4.63089 17.25 4.24512 17.5858 4.24512 18C4.24512 18.4142 4.63089 18.75 5.10677 18.75H18.8932C19.3691 18.75 19.7549 18.4142 19.7549 18C19.7549 17.5858 19.3691 17.25 18.8932 17.25H5.10677Z" fill="#010A27"/>
</svg>
