<svg width="24" height="24" viewBox="0 0 24 24" fill="none" xmlns="http://www.w3.org/2000/svg">
    <path d="M9.27631 6.02185C11.4982 6.02185 13.72 6.02969 15.9416 6.01663C16.5517 6.01298 17.1619 6.00958 17.772 6.00201C17.8241 6.00123 17.8756 6.0088 17.9274 6.0135C18.1755 6.03517 18.24 6.23413 18.2897 6.44381C18.8145 8.64834 18.6479 10.9962 17.7155 13.0697C17.4669 13.6225 17.1634 14.1431 16.8279 14.645C16.5642 15.0395 16.2769 15.4163 15.9624 15.773C15.7279 16.039 15.4814 16.2931 15.2198 16.5304C14.7276 16.9772 14.2052 17.3848 13.5961 17.6647C13.2731 17.8133 12.9345 17.9062 12.582 17.9558C12.2306 18.0054 11.8777 18.0049 11.5252 17.9971C9.57721 17.9548 7.62918 17.9877 5.68115 17.9788C4.67277 17.9744 3.66414 17.9778 2.65576 17.9788C2.55035 17.9788 2.44649 17.9704 2.34706 17.9378C2.14038 17.8704 2.01518 17.6887 2.00347 17.4477C2.00009 17.3793 2.00113 17.3106 2.00113 17.2422C2.00113 13.7358 2.00113 10.2294 2.00113 6.72319C2.00113 6.62293 2.00321 6.52344 2.02273 6.42292C2.06984 6.18244 2.26038 6.03909 2.50219 6.02446C2.58627 6.01924 2.67086 6.02159 2.7552 6.02159C4.9289 6.02159 7.10234 6.02159 9.27605 6.02107L9.27631 6.02185Z" fill="#2F4653"/>
    <path d="M18.2235 15.5337C18.3446 15.5008 18.443 15.4313 18.5354 15.3572C18.9297 15.0412 19.2228 14.6415 19.4729 14.206C20.3746 12.6351 20.9056 10.8726 21.0097 9.05429C21.0204 8.86916 21.0214 8.68456 21.0271 8.49969C21.0279 8.47227 21.0209 8.44303 21.0448 8.41326C21.1164 8.43415 21.181 8.4694 21.2393 8.5211C21.9371 9.1415 22.0553 10.3196 21.9798 11.1904C21.8007 13.2519 20.6661 15.452 18.8443 16.5162C18.8024 16.5408 18.76 16.5646 18.717 16.5875C18.4357 16.7382 18.1434 16.8565 17.8425 16.9578C17.7857 16.9768 17.729 16.9962 17.6727 17.0152C17.9208 17.0014 18.2639 16.958 18.6525 16.8298C19.6916 16.4873 20.5193 15.7141 21.094 14.7989C21.2354 14.5739 21.3621 14.341 21.486 14.106C21.4936 14.0919 21.5011 14.077 21.5204 14.0728C21.5433 14.0733 21.5527 14.0916 21.5605 14.1096C21.8491 14.7786 21.7747 15.4645 21.3679 16.069C20.5669 17.2583 18.8745 17.9683 17.4749 17.974C16.1849 17.9792 14.8952 17.9777 13.6052 17.9774C13.5646 17.9774 13.5029 17.9988 13.4917 17.9414C13.4797 17.8803 13.5455 17.8876 13.5833 17.8704C15.5404 16.9677 17.0212 15.393 17.9864 13.4699C18.8251 11.7988 19.2465 9.90733 19.0822 8.03674C19.0297 7.4375 18.9188 6.84322 18.7483 6.26643C18.7381 6.2317 18.7238 6.19776 18.717 6.16225C18.6936 6.03796 18.7303 6.00663 18.8571 6.01916C19.1739 6.05023 19.4534 6.16799 19.7025 6.36461C20.1739 6.73669 20.3548 7.41139 20.4636 7.97852C20.6672 9.04071 20.4592 10.2173 20.2116 11.2565C19.8897 12.609 19.3462 13.9307 18.5624 15.0809C18.4789 15.2037 18.3823 15.3172 18.2925 15.4353C18.2683 15.4671 18.2464 15.5011 18.2235 15.5337Z" fill="url(#paint0_linear_135_3676)"/>
    <path fill-rule="evenodd" clip-rule="evenodd" d="M15.3346 10.7855C15.5382 10.939 15.6881 11.1547 15.7615 11.3994C15.9711 12.1017 15.6558 12.9979 14.9015 13.196C14.78 13.2279 14.6548 13.2415 14.5298 13.2381C14.4051 13.2415 14.2799 13.2279 14.1581 13.196C13.4038 12.9979 13.0886 12.1017 13.2981 11.3994C13.3713 11.1547 13.5212 10.939 13.725 10.7855C13.9559 10.6116 14.2422 10.5205 14.5298 10.5137C14.8174 10.5205 15.1038 10.6116 15.3346 10.7855ZM14.5296 12.8775C14.9023 12.8736 15.1225 12.5161 15.2014 12.1835C15.2774 11.8631 15.2628 11.4858 15.084 11.1999C14.9601 11.0019 14.7495 10.8844 14.5293 10.8829C14.3093 10.8844 14.0985 11.0017 13.9746 11.1999C13.7958 11.4858 13.7817 11.8631 13.8577 12.1835C13.9366 12.5161 14.1568 12.8736 14.5296 12.8775Z" fill="url(#paint1_linear_135_3676)"/>
    <path d="M7.06993 11.0734C7.06784 10.9066 7.01631 10.7387 6.8695 10.645C6.7266 10.5538 6.53659 10.5557 6.42414 10.6943L6.41985 10.6994C6.41011 10.7108 6.3963 10.7269 6.40124 10.7411C6.40484 10.7514 6.42023 10.7537 6.43484 10.7559C6.44341 10.7571 6.45171 10.7584 6.4572 10.7612C6.48271 10.774 6.49286 10.7995 6.49208 10.827C6.49139 10.848 6.49104 10.9873 6.49051 11.2L6.48947 11.5823L5.38583 11.5758C5.37881 11.4842 5.3762 11.3813 5.38271 11.2695C5.3887 11.1664 5.40197 11.0638 5.42201 10.9625C5.43086 10.9181 5.44102 10.874 5.45247 10.8304C5.4567 10.8141 5.46347 10.7966 5.47043 10.7785C5.48402 10.7433 5.49835 10.7062 5.49594 10.6729C5.49542 10.6661 5.49386 10.6593 5.48969 10.6541C5.4798 10.6418 5.4608 10.6439 5.4457 10.6478C5.352 10.6719 5.26089 10.722 5.18905 10.787C5.16693 10.8069 5.10784 10.8633 5.05448 10.9593C4.91288 11.2137 4.90169 11.574 4.90169 11.574C4.8944 11.8069 4.88529 12.279 5.13283 12.7691C5.13283 12.7691 5.30618 13.1127 5.55424 13.1973C5.60318 13.214 5.61645 13.203 5.62062 13.1973C5.63617 13.1773 5.61218 13.1455 5.59592 13.124C5.59205 13.1188 5.58861 13.1143 5.58626 13.1106C5.56361 13.0756 5.54435 13.0385 5.52769 13.0002C5.49333 12.921 5.47043 12.8372 5.45351 12.7529C5.40171 12.496 5.36813 12.2359 5.37542 11.9735H6.48947V12.9597C6.48947 13.025 6.51602 13.0879 6.57615 13.1187C6.61233 13.1372 6.65346 13.1438 6.6938 13.1487C6.76434 13.1576 6.83644 13.1623 6.9062 13.1487C6.94707 13.1409 6.98794 13.126 7.01839 13.0976C7.06758 13.0519 7.06837 12.9897 7.06837 12.9273C7.06837 12.6987 7.06936 12.4701 7.07036 12.2415C7.07153 11.9748 7.07269 11.7081 7.07227 11.4413C7.07227 11.3184 7.07123 11.1964 7.06993 11.0734Z" fill="url(#paint2_linear_135_3676)"/>
    <path d="M5.54349 13.3217C5.09396 13.1899 4.91852 12.7121 4.82248 12.2977C4.80165 12.2073 4.78161 12.1183 4.76964 12.0261C4.73372 11.7475 4.73528 11.4412 4.82534 11.1723C4.77029 11.1846 4.73946 11.2251 4.70876 11.2655C4.70114 11.2755 4.69353 11.2855 4.68556 11.295C4.53902 11.4705 4.52756 11.6755 4.52054 11.8791C4.50388 12.3575 4.67801 12.6977 4.7168 12.7708C4.80426 12.935 4.89952 13.0431 4.92763 13.0742C5.02759 13.1852 5.12806 13.2622 5.20511 13.3134C5.14394 13.2982 5.05752 13.2698 4.96512 13.2126C4.87948 13.1596 4.81831 13.1006 4.77823 13.0554C4.72018 12.981 4.67931 12.9155 4.65276 12.869C4.58118 12.7447 4.49216 12.5899 4.44687 12.3823L4.44159 12.3573C4.43136 12.3082 4.42224 12.2644 4.40262 12.2624C4.36991 12.2591 4.33312 12.3746 4.32454 12.4016C4.29851 12.4838 4.29174 12.5606 4.292 12.6008C4.29382 12.7575 4.41095 13.0622 4.69077 13.269C4.69077 13.269 4.93544 13.4497 5.35399 13.4635C5.37117 13.464 5.47243 13.4617 5.54765 13.4077C5.58461 13.381 5.60908 13.3408 5.54349 13.3217Z" fill="url(#paint3_linear_135_3676)"/>
    <path d="M12.8019 10.7701C12.8225 10.8725 12.8243 10.9576 12.8225 11.015C12.8441 11.6728 12.8654 12.33 12.8868 12.9877C12.886 12.9987 12.8839 13.0138 12.8779 13.0308C12.8443 13.1272 12.7228 13.1744 12.6288 13.1757C12.5341 13.177 12.4208 13.1319 12.3808 13.0446C12.3802 13.0436 12.373 13.0266 12.369 13.0078C12.3412 12.8739 12.3251 11.7955 12.3191 11.3255C12.0624 11.8529 11.8615 12.2472 11.7688 12.4211C11.7498 12.4569 11.7097 12.5287 11.6355 12.5532C11.6142 12.5605 11.5905 12.5647 11.5663 12.5647C11.5421 12.5645 11.5184 12.5605 11.4971 12.5532C11.4229 12.5287 11.3825 12.4569 11.3638 12.4211C11.2709 12.2472 11.0702 11.8529 10.8135 11.3255C10.8076 11.7952 10.7914 12.8739 10.7636 13.0078C10.7597 13.0266 10.7524 13.0436 10.7519 13.0446C10.7118 13.1319 10.5985 13.177 10.5038 13.1757C10.4101 13.1744 10.2883 13.1272 10.2547 13.0308C10.2487 13.0138 10.2466 12.9987 10.2458 12.9877C10.2674 12.33 10.2888 11.6728 10.3101 11.015C10.3083 10.9579 10.3104 10.8727 10.3307 10.7701L10.3318 10.7637C10.3339 10.7506 10.3375 10.7282 10.3487 10.7028C10.3557 10.6863 10.3755 10.6427 10.4215 10.6129C10.4465 10.5973 10.4739 10.5881 10.503 10.5881C10.5119 10.5882 10.5208 10.5886 10.5297 10.5889C10.541 10.5893 10.5523 10.5897 10.5637 10.5897L10.5974 10.5902C10.6143 10.5905 10.6311 10.5907 10.648 10.5907C10.6672 10.5909 10.6864 10.5909 10.7057 10.5909C10.741 10.5909 10.7763 10.5909 10.8117 10.592C10.8609 10.5939 10.9067 10.6106 10.9413 10.6474C10.9827 10.691 11.0158 10.7532 11.0704 10.8863C11.0796 10.9085 11.0868 10.927 11.0918 10.9398L11.0928 10.9419C11.1204 11.0018 11.4082 11.6264 11.5176 11.8091C11.5257 11.8229 11.5437 11.8524 11.5663 11.8514C11.5887 11.8524 11.6069 11.8229 11.615 11.8091C11.7237 11.6283 12.007 11.0132 12.039 10.9437L12.0408 10.9398C12.0458 10.927 12.0531 10.9082 12.0622 10.8863C12.1168 10.7532 12.1499 10.691 12.1913 10.6474C12.2261 10.6106 12.272 10.5939 12.3209 10.592C12.3563 10.5907 12.3917 10.5908 12.4272 10.5908C12.4464 10.5909 12.4655 10.5909 12.4846 10.5907L12.5184 10.5903C12.5352 10.59 12.5521 10.5897 12.569 10.5897C12.5789 10.5897 12.589 10.5893 12.5991 10.5889C12.6092 10.5885 12.6194 10.5881 12.6296 10.5881C12.6588 10.5879 12.6863 10.5973 12.7111 10.6129C12.7571 10.6427 12.7769 10.6863 12.784 10.7028C12.7951 10.7282 12.7987 10.7506 12.8008 10.7637L12.8019 10.7701Z" fill="url(#paint4_linear_135_3676)"/>
    <path d="M9.73408 10.6664C9.68072 10.5987 9.58961 10.5961 9.50189 10.5938C9.41886 10.5914 9.31318 10.5885 9.24707 10.6622C9.21037 10.7032 9.20022 10.7515 9.19709 10.7807L9.19241 12.2367C9.19319 12.2842 9.1885 12.3737 9.14061 12.4722C9.09011 12.5761 9.01853 12.6351 9.00031 12.6495C9.00031 12.6495 8.87849 12.7461 8.7192 12.7589C8.70332 12.7602 8.6864 12.7607 8.6864 12.7607C8.68224 12.7607 8.67806 12.7607 8.6739 12.761C8.66975 12.761 8.66557 12.761 8.66141 12.7607C8.66141 12.7607 8.64475 12.7602 8.62861 12.7589C8.46931 12.7458 8.3475 12.6495 8.3475 12.6495C8.32902 12.6349 8.2577 12.5761 8.2072 12.4722C8.15931 12.3737 8.15462 12.2842 8.1554 12.2367L8.15072 10.7807C8.14759 10.7515 8.1377 10.7032 8.10074 10.6622C8.03463 10.5885 7.92895 10.5914 7.84591 10.5938C7.75846 10.5961 7.66709 10.5987 7.61373 10.6664C7.57183 10.7194 7.57521 10.7849 7.57859 10.8134V12.3372C7.57859 12.479 7.6192 12.6667 7.75481 12.845C7.90708 13.0453 8.12339 13.1346 8.19002 13.1594C8.32511 13.2098 8.45812 13.2239 8.49873 13.2278C8.56927 13.2349 8.62939 13.2351 8.6739 13.2338C8.71841 13.2351 8.77854 13.2349 8.84908 13.2278C8.88969 13.2237 9.0227 13.2096 9.15779 13.1594C9.22442 13.1346 9.44073 13.0453 9.593 12.845C9.72835 12.6667 9.76922 12.479 9.76922 12.3372V10.8134C9.7726 10.7849 9.77598 10.7194 9.73408 10.6664Z" fill="url(#paint5_linear_135_3676)"/>
    <defs>
        <linearGradient id="paint0_linear_135_3676" x1="12.5463" y1="13.8221" x2="22.2401" y2="10.8557" gradientUnits="userSpaceOnUse">
            <stop offset="0.33" stop-color="#9C8837"/>
            <stop offset="0.56" stop-color="#F7E59E"/>
            <stop offset="0.6" stop-color="#F0DE96"/>
            <stop offset="0.67" stop-color="#DECB80"/>
            <stop offset="0.75" stop-color="#C0AC5D"/>
            <stop offset="0.79" stop-color="#B39F4D"/>
        </linearGradient>
        <linearGradient id="paint1_linear_135_3676" x1="3.01264" y1="12.4381" x2="6.76449" y2="6.12685" gradientUnits="userSpaceOnUse">
            <stop offset="0.33" stop-color="#9C8837"/>
            <stop offset="0.56" stop-color="#F7E59E"/>
            <stop offset="0.6" stop-color="#F0DE96"/>
            <stop offset="0.67" stop-color="#DECB80"/>
            <stop offset="0.75" stop-color="#C0AC5D"/>
            <stop offset="0.79" stop-color="#B39F4D"/>
        </linearGradient>
        <linearGradient id="paint2_linear_135_3676" x1="3.01264" y1="12.4381" x2="6.76449" y2="6.12685" gradientUnits="userSpaceOnUse">
            <stop offset="0.33" stop-color="#9C8837"/>
            <stop offset="0.56" stop-color="#F7E59E"/>
            <stop offset="0.6" stop-color="#F0DE96"/>
            <stop offset="0.67" stop-color="#DECB80"/>
            <stop offset="0.75" stop-color="#C0AC5D"/>
            <stop offset="0.79" stop-color="#B39F4D"/>
        </linearGradient>
        <linearGradient id="paint3_linear_135_3676" x1="3.01264" y1="12.4381" x2="6.76449" y2="6.12685" gradientUnits="userSpaceOnUse">
            <stop offset="0.33" stop-color="#9C8837"/>
            <stop offset="0.56" stop-color="#F7E59E"/>
            <stop offset="0.6" stop-color="#F0DE96"/>
            <stop offset="0.67" stop-color="#DECB80"/>
            <stop offset="0.75" stop-color="#C0AC5D"/>
            <stop offset="0.79" stop-color="#B39F4D"/>
        </linearGradient>
        <linearGradient id="paint4_linear_135_3676" x1="3.01264" y1="12.4381" x2="6.76449" y2="6.12685" gradientUnits="userSpaceOnUse">
            <stop offset="0.33" stop-color="#9C8837"/>
            <stop offset="0.56" stop-color="#F7E59E"/>
            <stop offset="0.6" stop-color="#F0DE96"/>
            <stop offset="0.67" stop-color="#DECB80"/>
            <stop offset="0.75" stop-color="#C0AC5D"/>
            <stop offset="0.79" stop-color="#B39F4D"/>
        </linearGradient>
        <linearGradient id="paint5_linear_135_3676" x1="3.01264" y1="12.4381" x2="6.76449" y2="6.12685" gradientUnits="userSpaceOnUse">
            <stop offset="0.33" stop-color="#9C8837"/>
            <stop offset="0.56" stop-color="#F7E59E"/>
            <stop offset="0.6" stop-color="#F0DE96"/>
            <stop offset="0.67" stop-color="#DECB80"/>
            <stop offset="0.75" stop-color="#C0AC5D"/>
            <stop offset="0.79" stop-color="#B39F4D"/>
        </linearGradient>
    </defs>
</svg>
