<svg width="24" height="24" viewBox="0 0 24 24" fill="none" xmlns="http://www.w3.org/2000/svg">
    <path d="M8.625 17.625C11.7316 17.625 14.25 15.1066 14.25 12C14.25 8.8934 11.7316 6.375 8.625 6.375C5.5184 6.375 3 8.8934 3 12C3 15.1066 5.5184 17.625 8.625 17.625Z" fill="#EB001B"/>
    <path d="M15.375 17.625C18.4816 17.625 21 15.1066 21 12C21 8.8934 18.4816 6.375 15.375 6.375C12.2684 6.375 9.75 8.8934 9.75 12C9.75 15.1066 12.2684 17.625 15.375 17.625Z" fill="#F79E1B"/>
    <path fill-rule="evenodd" clip-rule="evenodd" d="M12 7.5C13.3663 8.52623 14.25 10.1601 14.25 12.0004C14.25 13.8407 13.3663 15.4746 12 16.5008C10.6337 15.4746 9.75 13.8407 9.75 12.0004C9.75 10.1601 10.6337 8.52623 12 7.5Z" fill="#FF5F00"/>
</svg>
