<svg width="32" height="33" viewBox="0 0 32 33" fill="none" xmlns="http://www.w3.org/2000/svg">
    <path fill-rule="evenodd" clip-rule="evenodd" d="M29.3327 16.4993C29.3327 20.5172 27.5556 24.1199 24.7445 26.5644C22.4034 28.6002 19.3453 29.8327 15.9993 29.8327C12.6534 29.8327 9.59527 28.6002 7.25424 26.5644C4.44315 24.1199 2.66602 20.5172 2.66602 16.4993C2.66602 9.13555 8.63555 3.16602 15.9993 3.16602C23.3631 3.16602 29.3327 9.13555 29.3327 16.4993ZM19.9993 12.4993C19.9993 10.2902 18.2085 8.49935 15.9993 8.49935C13.7902 8.49935 11.9993 10.2902 11.9993 12.4993C11.9993 14.7085 13.7902 16.4993 15.9993 16.4993C18.2085 16.4993 19.9993 14.7085 19.9993 12.4993ZM15.9993 19.166C18.283 19.166 19.7847 20.3882 20.8436 21.7467C21.6336 22.7602 21.3617 24.247 20.2156 24.8283C18.9492 25.4707 17.5166 25.8327 15.9993 25.8327C14.4821 25.8327 13.0495 25.4707 11.7831 24.8283C10.637 24.247 10.365 22.7602 11.1551 21.7467C12.214 20.3882 13.7157 19.166 15.9993 19.166Z" fill="#F07448"/>
</svg>
