<svg width="24" height="24" viewBox="0 0 24 24" fill="none" xmlns="http://www.w3.org/2000/svg">
    <path fill-rule="evenodd" clip-rule="evenodd" d="M4.25 7C4.25 6.58579 4.58579 6.25 5 6.25H5.00195C5.41617 6.25 5.75195 6.58579 5.75195 7V7.002C5.75195 7.20403 5.67044 7.39752 5.52588 7.53865C5.38132 7.67979 5.18593 7.75663 4.98396 7.75178L4.98201 7.75174C4.57492 7.74197 4.25 7.40916 4.25 7.00195V7ZM8.25 7C8.25 6.58579 8.58579 6.25 9 6.25H19C19.4142 6.25 19.75 6.58579 19.75 7C19.75 7.41421 19.4142 7.75 19 7.75H9C8.58579 7.75 8.25 7.41421 8.25 7ZM4.25 12C4.25 11.5858 4.58579 11.25 5 11.25H5.00195C5.41617 11.25 5.75195 11.5858 5.75195 12V12.002C5.75195 12.204 5.67045 12.3975 5.5259 12.5386C5.38135 12.6798 5.18598 12.7566 4.98401 12.7518L4.98206 12.7517C4.57495 12.742 4.25 12.4092 4.25 12.002V12ZM8.25 12C8.25 11.5858 8.58579 11.25 9 11.25H19C19.4142 11.25 19.75 11.5858 19.75 12C19.75 12.4142 19.4142 12.75 19 12.75H9C8.58579 12.75 8.25 12.4142 8.25 12ZM4.25 17C4.25 16.5858 4.58579 16.25 5 16.25H5.00195C5.41617 16.25 5.75195 16.5858 5.75195 17V17.002C5.75195 17.204 5.67045 17.3975 5.5259 17.5386C5.38135 17.6798 5.18598 17.7566 4.98401 17.7518L4.98206 17.7517C4.57495 17.742 4.25 17.4092 4.25 17.002V17ZM8.25 17C8.25 16.5858 8.58579 16.25 9 16.25H19C19.4142 16.25 19.75 16.5858 19.75 17C19.75 17.4142 19.4142 17.75 19 17.75H9C8.58579 17.75 8.25 17.4142 8.25 17Z" fill="#F07448"/>
</svg>
