<svg width="91" height="90" viewBox="0 0 91 90" fill="none" xmlns="http://www.w3.org/2000/svg">
    <path d="M37.9861 3.71635C36.9303 3.72862 36.0989 2.90949 36.0978 1.85823C36.0978 0.828176 36.9035 0.0112739 37.9325 0.000114056C38.9949 -0.0110458 39.8174 0.798045 39.8185 1.85935C39.8207 2.88494 39.0116 3.70519 37.9861 3.71635Z" fill="#F07448"/>
    <path d="M45.5525 3.16281C43.8506 3.13491 42.5337 4.41495 42.5136 6.11906H42.5148C42.4947 7.77295 43.7836 9.10097 45.4487 9.14226C47.0992 9.18356 48.4797 7.83991 48.5009 6.17039C48.521 4.52766 47.2097 3.18959 45.5525 3.16281Z" fill="#F07448"/>
    <path d="M57.8127 13.9287C57.8038 16.1484 56.0539 17.8793 53.8331 17.8671C51.6636 17.8548 49.9115 16.0938 49.9003 13.9165C49.8892 11.7202 51.6658 9.94802 53.8744 9.9536C56.0974 9.95806 57.8216 11.699 57.8138 13.9299L57.8127 13.9287Z" fill="#F07448"/>
    <path d="M45.1508 26.9523C42.4724 26.8954 40.4636 24.8252 40.535 22.1926C40.602 19.6995 42.7224 17.6807 45.2333 17.7175C47.7934 17.7543 49.8502 19.8881 49.7899 22.4437C49.7285 24.996 47.6606 27.0058 45.1508 26.9523Z" fill="#F07448"/>
    <path d="M58.4979 22.0442C55.9602 22.0431 53.8945 24.1066 53.8878 26.6488C53.88 29.2278 55.9066 31.3036 58.4778 31.3504C60.9955 31.3973 63.1393 29.2747 63.1482 26.7258C63.1583 24.1144 61.1026 22.0442 58.4979 22.0442Z" fill="#F07448"/>
    <path d="M36.4471 26.7381C36.465 24.149 34.4328 22.0676 31.8649 22.0453C29.2936 22.023 27.1856 24.0831 27.1722 26.632C27.1588 29.201 29.2367 31.3337 31.7611 31.3426C34.3346 31.3515 36.4293 29.2937 36.4471 26.7381Z" fill="#F07448"/>
    <path d="M40.5216 67.8186C40.4926 65.2597 42.5404 63.1772 45.1351 63.1281C47.6617 63.0802 49.7854 65.186 49.8066 67.7595C49.8278 70.295 47.7688 72.3886 45.2222 72.421C42.6599 72.4533 40.5506 70.3888 40.5216 67.8186Z" fill="#F07448"/>
    <path d="M66.7563 47.4496C64.1817 47.4619 62.1383 49.4964 62.1383 52.0509C62.1383 54.6533 64.1638 56.7045 66.7529 56.7224C69.3208 56.7391 71.3999 54.6645 71.3999 52.0821C71.3999 49.4863 69.3465 47.4374 66.7563 47.4496Z" fill="#F07448"/>
    <path d="M23.6088 47.4496C26.2303 47.4809 28.2391 49.5578 28.1989 52.1959C28.1609 54.7214 26.0506 56.7492 23.4872 56.7246C20.9293 56.7001 18.886 54.5797 18.9273 51.9928C18.9686 49.4395 21.0499 47.4195 23.6088 47.4496Z" fill="#F07448"/>
    <path d="M18.9485 38.0262C18.9384 40.6131 20.9863 42.6654 23.5754 42.6643C26.1287 42.662 28.1822 40.6097 28.1855 38.0552C28.1889 35.4985 26.1332 33.4172 23.6055 33.4172C21.0019 33.4183 18.9585 35.4405 18.9485 38.0262Z" fill="#F07448"/>
    <path d="M53.9057 63.4406C53.8967 60.8771 55.9334 58.8237 58.4868 58.8226C61.0759 58.8215 63.1248 60.8325 63.1338 63.3837C63.1438 66.0018 61.0647 68.1032 58.4879 68.0808C55.9412 68.0585 53.9146 66.0062 53.9057 63.4406Z" fill="#F07448"/>
    <path d="M62.1561 38.2193C62.2164 40.7024 64.3289 42.7156 66.8075 42.6531V42.6542C69.4681 42.5873 71.4456 40.5405 71.3842 37.918C71.3228 35.3278 69.2147 33.3614 66.5598 33.4217C64.0622 33.4775 62.0936 35.6224 62.1561 38.2193Z" fill="#F07448"/>
    <path d="M31.8359 68.0819C34.3748 68.0719 36.4193 66.0051 36.4226 63.445C36.426 60.8637 34.4139 58.8326 31.846 58.8248C29.2681 58.817 27.2102 60.8325 27.1968 63.3792C27.1834 65.9883 29.258 68.092 31.8359 68.0819Z" fill="#F07448"/>
    <path d="M19.7509 69.102C17.5446 69.0819 15.826 67.3075 15.8539 65.0789C15.8807 62.9295 17.6562 61.1729 19.7855 61.1896C22.0465 61.2064 23.7941 62.9641 23.7718 65.1983C23.7495 67.4046 21.9795 69.1221 19.7509 69.102Z" fill="#F07448"/>
    <path d="M77.5077 47.6751C79.6671 47.6784 81.4449 45.8984 81.4449 43.7323C81.446 41.5081 79.7084 39.7605 77.4932 39.7571C75.2735 39.7527 73.5437 41.4836 73.5303 43.72C73.5169 45.914 75.2857 47.6717 77.5077 47.6751Z" fill="#F07448"/>
    <path d="M60.384 75.3895C60.3851 73.1664 58.643 71.4177 56.43 71.4233H56.4289C54.2226 71.4277 52.4672 73.1954 52.4727 75.4051C52.4794 77.5936 54.2639 79.3535 56.4724 79.3479C58.6308 79.3423 60.3829 77.5701 60.384 75.3895Z" fill="#F07448"/>
    <path d="M14.2803 27.1721C14.2803 24.9625 15.9911 23.2171 18.1739 23.2015C20.3836 23.1847 22.1893 24.948 22.1937 27.1253C22.1993 29.3182 20.426 31.1216 18.2487 31.1384C16.0569 31.1551 14.2803 29.3796 14.2803 27.1721Z" fill="#F07448"/>
    <path d="M12.8005 42.4723C10.6232 42.4812 8.90011 44.2367 8.91127 46.4352C8.92243 48.6515 10.6712 50.3724 12.8987 50.3579C15.0514 50.3445 16.8281 48.5466 16.8169 46.3939C16.8058 44.2133 15.0124 42.4634 12.8005 42.4723Z" fill="#F07448"/>
    <path d="M37.8376 14.7211C37.8443 16.9151 36.1201 18.6627 33.9384 18.6739C31.712 18.6851 29.9432 16.953 29.9409 14.7601C29.9387 12.5572 31.7019 10.7872 33.8982 10.7861C36.061 10.7861 37.8309 12.5538 37.8376 14.7211Z" fill="#F07448"/>
    <path d="M36.3389 80.1547C38.6344 80.1714 40.3921 78.483 40.4089 76.2443V76.2432C40.4256 74.0558 38.6914 72.297 36.5018 72.2803C34.3089 72.2636 32.5244 74.0011 32.511 76.1639C32.4987 78.3368 34.2274 80.1391 36.3389 80.1547Z" fill="#F07448"/>
    <path d="M74.4476 24.9625C74.4554 27.1733 72.7446 28.9008 70.5383 28.9098C68.3197 28.9187 66.5676 27.1766 66.5621 24.9558C66.5565 22.7975 68.3331 21.0298 70.5171 21.0209C72.7011 21.0119 74.4387 22.7551 74.4465 24.9625H74.4476Z" fill="#F07448"/>
    <path d="M72.1989 59.0325C69.9658 58.9856 68.2171 60.6697 68.1657 62.9184C68.1155 65.089 69.8497 66.869 72.0494 66.9058C74.2266 66.9415 76.0111 65.2229 76.0647 63.0389C76.1182 60.8705 74.3896 59.0794 72.1989 59.0325Z" fill="#F07448"/>
    <path d="M25.006 76.3403C25.0083 78.0165 23.6791 79.3535 22.0107 79.3546C20.3725 79.3546 18.9786 77.9529 18.9998 76.3247C19.021 74.692 20.368 73.3539 21.9985 73.345C23.6769 73.3361 25.0038 74.6574 25.006 76.3403Z" fill="#F07448"/>
    <path d="M8.23609 29.72C6.57773 29.7311 5.26756 31.0424 5.26422 32.6941C5.26087 34.377 6.5755 35.7061 8.25171 35.7139C9.91007 35.7217 11.266 34.3669 11.2604 32.7063C11.2548 31.0346 9.91118 29.7088 8.23609 29.72Z" fill="#F07448"/>
    <path d="M70.7536 76.742C70.7559 78.4372 69.4557 79.7318 67.7527 79.7306C66.1167 79.7306 64.7652 78.3981 64.7519 76.771C64.7374 75.1249 66.0922 73.7556 67.7539 73.7355C69.41 73.7155 70.7525 75.0602 70.7536 76.742Z" fill="#F07448"/>
    <path d="M68.2985 16.7555C66.6457 16.7533 65.3311 15.4342 65.3322 13.7792C65.3322 12.1275 66.6502 10.7962 68.2962 10.7861C69.9635 10.775 71.3083 12.1287 71.2949 13.8015C71.2804 15.4509 69.9557 16.7578 68.2996 16.7555H68.2985Z" fill="#F07448"/>
    <path d="M82.293 36.3545C83.9513 36.3344 85.2682 35.012 85.2671 33.3681C85.2659 31.7031 83.958 30.3728 82.3186 30.3672C80.6391 30.3616 79.3021 31.6473 79.282 33.2878C79.2619 34.9908 80.6201 36.3757 82.293 36.3545Z" fill="#F07448"/>
    <path d="M85.0372 57.4344C85.0327 59.0961 83.7225 60.3929 82.0553 60.385C80.3958 60.3783 79.089 59.0604 79.0968 57.4031C79.1046 55.7381 80.4159 54.4156 82.0597 54.4134C83.7493 54.4123 85.0428 55.7236 85.0372 57.4333V57.4344Z" fill="#F07448"/>
    <path d="M19.5812 13.4098C19.5879 15.0291 20.9037 16.3437 22.5263 16.3527V16.3516C24.2293 16.3616 25.5484 15.0604 25.5451 13.3774C25.5406 11.7124 24.2394 10.41 22.5765 10.4067C20.888 10.4033 19.5745 11.7202 19.5812 13.4098Z" fill="#F07448"/>
    <path d="M8.04302 59.7311C6.37462 59.7244 5.05552 58.4064 5.0678 56.7603C5.08007 55.0908 6.38689 53.7985 8.05976 53.7996C9.73039 53.8007 11.0339 55.1042 11.035 56.7737C11.035 58.4243 9.70807 59.7378 8.04413 59.7311H8.04302Z" fill="#F07448"/>
    <path d="M44.7523 86.9511C46.4553 86.9813 47.7699 85.7035 47.7956 83.9949C47.8202 82.3711 46.5312 81.032 44.903 80.9884C43.2323 80.9449 41.882 82.2595 41.8574 83.9547C41.834 85.5818 43.1297 86.9221 44.7523 86.9511Z" fill="#F07448"/>
    <path d="M3.7108 38.553C3.71526 39.6132 2.91287 40.4156 1.8471 40.4156C0.803654 40.4156 0.0113034 39.6377 0.000143487 38.6032C-0.0121324 37.5296 0.764594 36.7194 1.82367 36.7005C2.85484 36.6815 3.70633 37.5185 3.7108 38.5541V38.553Z" fill="#F07448"/>
    <path d="M85.8932 24.8475C85.8832 23.8063 85.0395 22.9771 84.0061 22.9939L84.005 22.995C82.957 23.0117 82.1547 23.842 82.1681 24.8944C82.1814 25.9077 83.0173 26.7291 84.0228 26.7179C85.0797 26.7056 85.9033 25.882 85.8932 24.8475Z" fill="#F07448"/>
    <path d="M23.7171 84.2571C23.6959 85.2381 24.5384 86.0773 25.564 86.0985H25.5629C26.6209 86.1197 27.4467 85.3263 27.4646 84.2705C27.4824 83.2539 26.6867 82.4258 25.6622 82.3946C24.5976 82.3633 23.7405 83.1836 23.7171 84.2571Z" fill="#F07448"/>
    <path d="M65.7016 5.55883C65.6715 6.58888 64.849 7.39016 63.8379 7.37454C62.7978 7.3578 61.9351 6.47951 61.9798 5.48182C62.0244 4.47743 62.8882 3.63486 63.8591 3.64826C64.8802 3.66165 65.7317 4.54439 65.7016 5.55883Z" fill="#F07448"/>
    <path d="M76.4363 73.913C75.385 73.8929 74.5491 74.7009 74.5391 75.7455H74.5402C74.5302 76.8123 75.3337 77.6415 76.3738 77.6382C77.4127 77.6348 78.2352 76.8458 78.2497 75.837C78.2654 74.7779 77.4685 73.932 76.4363 73.913Z" fill="#F07448"/>
    <path d="M88.5972 48.839C89.6373 48.8435 90.414 49.6358 90.414 50.6893C90.414 51.7406 89.5703 52.5776 88.5358 52.553C87.537 52.5296 86.7201 51.6703 86.7346 50.657C86.748 49.6325 87.566 48.8346 88.5983 48.839H88.5972Z" fill="#F07448"/>
    <path d="M4.86362 66.1737C4.87924 67.2038 5.69614 68.0117 6.71615 68.0061L6.71727 68.005C7.74844 68.0006 8.56981 67.1904 8.57315 66.1759C8.57539 65.1537 7.75848 64.32 6.74628 64.3133C5.68387 64.3066 4.84688 65.1336 4.86362 66.1737Z" fill="#F07448"/>
    <path d="M53.2461 90C52.215 90.0022 51.426 89.1987 51.4315 88.1519C51.4371 87.1118 52.2272 86.3239 53.2685 86.3206C54.3074 86.3172 55.1087 87.1096 55.1154 88.1452C55.1221 89.2166 54.3353 89.9966 53.2461 89.9989V90Z" fill="#F07448"/>
    <path d="M13.2614 16.9452C14.2881 16.9285 15.1017 16.1071 15.0983 15.0916C15.095 14.0593 14.2837 13.2324 13.2715 13.2301C12.2537 13.2268 11.4055 14.0537 11.4011 15.0525C11.3966 16.0993 12.2436 16.962 13.2614 16.9452Z" fill="#F07448"/>
</svg>
