<svg width="24" height="24" viewBox="0 0 24 24" fill="none" xmlns="http://www.w3.org/2000/svg">
    <path fill-rule="evenodd" clip-rule="evenodd" d="M18.0202 12.4748C18.0202 14.68 17.5163 16.3232 16.5093 17.394C15.5022 18.4649 13.9467 19 11.8491 19C9.88953 19 8.40249 18.4646 7.38888 17.394C6.37497 16.3235 5.86816 14.7089 5.86816 12.5502V5.30779C5.86876 5.13795 6.00611 5.0006 6.17564 5H9.72894C9.89877 5.0006 10.0361 5.13795 10.0367 5.30779V12.7084C10.0367 13.5897 10.1997 14.2682 10.5316 14.7467C11.129 15.5387 12.2552 15.6963 13.0472 15.0989C13.166 15.0092 13.2733 14.9052 13.3663 14.789C13.6907 14.34 13.8522 13.6782 13.8513 12.8037V11.4179H18.0202V12.4748Z" fill="#203E7A"/>
    <path fill-rule="evenodd" clip-rule="evenodd" d="M17.6978 10.6087H13.8516V5.32209C13.8522 5.14421 13.9961 5.0003 14.1737 5H14.7493C14.7505 6.80501 16.214 8.26767 18.019 8.26767H18.0199V10.6087H17.6975H17.6978Z" fill="#203E7A"/>
    <path fill-rule="evenodd" clip-rule="evenodd" d="M15.5687 5.0003H17.6978C17.8756 5.00089 18.0196 5.14481 18.0199 5.32239V7.45425C16.666 7.45425 15.5684 6.35659 15.5684 5.00268V5L15.5687 5.0003Z" fill="#F4821F"/>
</svg>
