<svg width="61" height="14" viewBox="0 0 61 14" fill="none" xmlns="http://www.w3.org/2000/svg">
    <path d="M4.13086 11.5322L6.73242 3.49023H8.39355L4.97461 13H3.88477L4.13086 11.5322ZM1.95996 3.49023L4.64062 11.5762L4.8252 13H3.73535L0.290039 3.49023H1.95996ZM16.6201 5.80176H17.7803C18.3486 5.80176 18.8174 5.70801 19.1865 5.52051C19.5615 5.32715 19.8398 5.06641 20.0215 4.73828C20.209 4.4043 20.3027 4.0293 20.3027 3.61328C20.3027 3.12109 20.2207 2.70801 20.0566 2.37402C19.8926 2.04004 19.6465 1.78809 19.3184 1.61816C18.9902 1.44824 18.5742 1.36328 18.0703 1.36328C17.6133 1.36328 17.209 1.4541 16.8574 1.63574C16.5117 1.81152 16.2393 2.06348 16.04 2.3916C15.8467 2.71973 15.75 3.10645 15.75 3.55176H14.124C14.124 2.90137 14.2881 2.30957 14.6162 1.77637C14.9443 1.24316 15.4043 0.818359 15.9961 0.501953C16.5938 0.185547 17.2852 0.0273438 18.0703 0.0273438C18.8438 0.0273438 19.5205 0.165039 20.1006 0.44043C20.6807 0.709961 21.1318 1.11426 21.4541 1.65332C21.7764 2.18652 21.9375 2.85156 21.9375 3.64844C21.9375 3.9707 21.8613 4.31641 21.709 4.68555C21.5625 5.04883 21.3311 5.38867 21.0146 5.70508C20.7041 6.02148 20.2998 6.28223 19.8018 6.4873C19.3037 6.68652 18.7061 6.78613 18.0088 6.78613H16.6201V5.80176ZM16.6201 7.1377V6.16211H18.0088C18.8232 6.16211 19.4971 6.25879 20.0303 6.45215C20.5635 6.64551 20.9824 6.90332 21.2871 7.22559C21.5977 7.54785 21.8145 7.90234 21.9375 8.28906C22.0664 8.66992 22.1309 9.05078 22.1309 9.43164C22.1309 10.0293 22.0283 10.5596 21.8232 11.0225C21.624 11.4854 21.3398 11.8779 20.9707 12.2002C20.6074 12.5225 20.1797 12.7656 19.6875 12.9297C19.1953 13.0938 18.6592 13.1758 18.0791 13.1758C17.5225 13.1758 16.998 13.0967 16.5059 12.9385C16.0195 12.7803 15.5889 12.5518 15.2139 12.2529C14.8389 11.9482 14.5459 11.5762 14.335 11.1367C14.124 10.6914 14.0186 10.1846 14.0186 9.61621H15.6445C15.6445 10.0615 15.7412 10.4512 15.9346 10.7852C16.1338 11.1191 16.415 11.3799 16.7783 11.5674C17.1475 11.749 17.5811 11.8398 18.0791 11.8398C18.5771 11.8398 19.0049 11.7549 19.3623 11.585C19.7256 11.4092 20.0039 11.1455 20.1973 10.7939C20.3965 10.4424 20.4961 10 20.4961 9.4668C20.4961 8.93359 20.3848 8.49707 20.1621 8.15723C19.9395 7.81152 19.623 7.55664 19.2129 7.39258C18.8086 7.22266 18.3311 7.1377 17.7803 7.1377H16.6201ZM24.5742 12.1387C24.5742 11.8633 24.6592 11.6318 24.8291 11.4443C25.0049 11.251 25.2568 11.1543 25.585 11.1543C25.9131 11.1543 26.1621 11.251 26.332 11.4443C26.5078 11.6318 26.5957 11.8633 26.5957 12.1387C26.5957 12.4082 26.5078 12.6367 26.332 12.8242C26.1621 13.0117 25.9131 13.1055 25.585 13.1055C25.2568 13.1055 25.0049 13.0117 24.8291 12.8242C24.6592 12.6367 24.5742 12.4082 24.5742 12.1387ZM31.4912 5.80176H32.6514C33.2197 5.80176 33.6885 5.70801 34.0576 5.52051C34.4326 5.32715 34.7109 5.06641 34.8926 4.73828C35.0801 4.4043 35.1738 4.0293 35.1738 3.61328C35.1738 3.12109 35.0918 2.70801 34.9277 2.37402C34.7637 2.04004 34.5176 1.78809 34.1895 1.61816C33.8613 1.44824 33.4453 1.36328 32.9414 1.36328C32.4844 1.36328 32.0801 1.4541 31.7285 1.63574C31.3828 1.81152 31.1104 2.06348 30.9111 2.3916C30.7178 2.71973 30.6211 3.10645 30.6211 3.55176H28.9951C28.9951 2.90137 29.1592 2.30957 29.4873 1.77637C29.8154 1.24316 30.2754 0.818359 30.8672 0.501953C31.4648 0.185547 32.1562 0.0273438 32.9414 0.0273438C33.7148 0.0273438 34.3916 0.165039 34.9717 0.44043C35.5518 0.709961 36.0029 1.11426 36.3252 1.65332C36.6475 2.18652 36.8086 2.85156 36.8086 3.64844C36.8086 3.9707 36.7324 4.31641 36.5801 4.68555C36.4336 5.04883 36.2021 5.38867 35.8857 5.70508C35.5752 6.02148 35.1709 6.28223 34.6729 6.4873C34.1748 6.68652 33.5771 6.78613 32.8799 6.78613H31.4912V5.80176ZM31.4912 7.1377V6.16211H32.8799C33.6943 6.16211 34.3682 6.25879 34.9014 6.45215C35.4346 6.64551 35.8535 6.90332 36.1582 7.22559C36.4688 7.54785 36.6855 7.90234 36.8086 8.28906C36.9375 8.66992 37.002 9.05078 37.002 9.43164C37.002 10.0293 36.8994 10.5596 36.6943 11.0225C36.4951 11.4854 36.2109 11.8779 35.8418 12.2002C35.4785 12.5225 35.0508 12.7656 34.5586 12.9297C34.0664 13.0938 33.5303 13.1758 32.9502 13.1758C32.3936 13.1758 31.8691 13.0967 31.377 12.9385C30.8906 12.7803 30.46 12.5518 30.085 12.2529C29.71 11.9482 29.417 11.5762 29.2061 11.1367C28.9951 10.6914 28.8896 10.1846 28.8896 9.61621H30.5156C30.5156 10.0615 30.6123 10.4512 30.8057 10.7852C31.0049 11.1191 31.2861 11.3799 31.6494 11.5674C32.0186 11.749 32.4521 11.8398 32.9502 11.8398C33.4482 11.8398 33.876 11.7549 34.2334 11.585C34.5967 11.4092 34.875 11.1455 35.0684 10.7939C35.2676 10.4424 35.3672 10 35.3672 9.4668C35.3672 8.93359 35.2559 8.49707 35.0332 8.15723C34.8105 7.81152 34.4941 7.55664 34.084 7.39258C33.6797 7.22266 33.2021 7.1377 32.6514 7.1377H31.4912ZM39.4453 12.1387C39.4453 11.8633 39.5303 11.6318 39.7002 11.4443C39.876 11.251 40.1279 11.1543 40.4561 11.1543C40.7842 11.1543 41.0332 11.251 41.2031 11.4443C41.3789 11.6318 41.4668 11.8633 41.4668 12.1387C41.4668 12.4082 41.3789 12.6367 41.2031 12.8242C41.0332 13.0117 40.7842 13.1055 40.4561 13.1055C40.1279 13.1055 39.876 13.0117 39.7002 12.8242C39.5303 12.6367 39.4453 12.4082 39.4453 12.1387ZM48.5947 0.132812V13H46.9688V2.16309L43.6904 3.3584V1.89062L48.3398 0.132812H48.5947ZM60.1963 11.6641V13H51.8203V11.8311L56.0127 7.16406C56.5283 6.58984 56.9268 6.10352 57.208 5.70508C57.4951 5.30078 57.6943 4.94043 57.8057 4.62402C57.9229 4.30176 57.9814 3.97363 57.9814 3.63965C57.9814 3.21777 57.8936 2.83691 57.7178 2.49707C57.5479 2.15137 57.2959 1.87598 56.9619 1.6709C56.6279 1.46582 56.2236 1.36328 55.749 1.36328C55.1807 1.36328 54.7061 1.47461 54.3252 1.69727C53.9502 1.91406 53.6689 2.21875 53.4814 2.61133C53.2939 3.00391 53.2002 3.45508 53.2002 3.96484H51.5742C51.5742 3.24414 51.7324 2.58496 52.0488 1.9873C52.3652 1.38965 52.834 0.915039 53.4551 0.563477C54.0762 0.206055 54.8408 0.0273438 55.749 0.0273438C56.5576 0.0273438 57.249 0.170898 57.8232 0.458008C58.3975 0.739258 58.8369 1.1377 59.1416 1.65332C59.4521 2.16309 59.6074 2.76074 59.6074 3.44629C59.6074 3.82129 59.543 4.20215 59.4141 4.58887C59.291 4.96973 59.1182 5.35059 58.8955 5.73145C58.6787 6.1123 58.4238 6.4873 58.1309 6.85645C57.8438 7.22559 57.5361 7.58887 57.208 7.94629L53.7803 11.6641H60.1963Z" fill="#010A27" fill-opacity="0.6"/>
</svg>
