<svg width="24" height="24" viewBox="0 0 24 24" fill="none" xmlns="http://www.w3.org/2000/svg">
    <path d="M3.28773 9.72596C2.76459 9.43903 2.16754 9.20826 1.5 9.04812L1.528 8.92341H4.26498C4.63596 8.93641 4.93699 9.04803 5.03495 9.44223L5.62977 12.2781L5.81198 13.1322L7.47797 8.92341H9.27679L6.60288 15.0891H4.80397L3.28773 9.72596ZM10.6 15.0956H8.89883L9.96285 8.92341H11.6639L10.6 15.0956ZM16.7668 9.0743L16.5354 10.4071L16.3816 10.3416C16.0737 10.2168 15.6674 10.0921 15.1144 10.1052C14.4427 10.1052 14.1415 10.3743 14.1345 10.637C14.1345 10.9259 14.4989 11.1164 15.0939 11.3988C16.074 11.8387 16.5286 12.3771 16.5218 13.0797C16.5081 14.3602 15.346 15.1876 13.5611 15.1876C12.7979 15.1809 12.0628 15.0296 11.6638 14.8591L11.9019 13.4736L12.1259 13.5722C12.6789 13.8022 13.0428 13.9005 13.722 13.9005C14.2118 13.9005 14.7369 13.7099 14.7436 13.2964C14.7436 13.0272 14.5199 12.83 13.8617 12.528C13.2178 12.2324 12.3568 11.74 12.3708 10.8535C12.3781 9.65195 13.5611 8.81152 15.241 8.81152C15.899 8.81152 16.4312 8.94941 16.7668 9.0743ZM19.0278 12.909H20.4417C20.3718 12.6004 20.0496 11.123 20.0496 11.123L19.9307 10.5912C19.8467 10.821 19.6999 11.1953 19.7069 11.1821C19.7069 11.1821 19.1678 12.5544 19.0278 12.909ZM21.1276 8.92341L22.5 15.0955H20.9249C20.9249 15.0955 20.7708 14.3863 20.7219 14.1696H18.5378C18.4746 14.3337 18.1808 15.0955 18.1808 15.0955H16.3958L18.9226 9.43551C19.0977 9.03494 19.406 8.92341 19.8118 8.92341H21.1276Z" fill="#171E6C"/>
</svg>
